<?xml version="1.0" standalone="no"?>
<!DOCTYPE svg PUBLIC "-//W3C//DTD SVG 1.1//EN" "http://www.w3.org/Graphics/SVG/1.1/DTD/svg11.dtd" >
<svg xmlns="http://www.w3.org/2000/svg" xmlns:xlink="http://www.w3.org/1999/xlink" version="1.1">
<metadata>
Created by FontForge 20170924 at Sun Dec  1 08:43:00 2019
 By www-data
,,,:www.yegenyou.com QQ:248802407
</metadata>
<defs>
<font id="" horiz-adv-x="128" >
  <font-face 
    font-family=""
    font-weight="400"
    font-stretch="normal"
    units-per-em="256"
    panose-1="3 0 5 9 0 0 0 0 0 0"
    ascent="204"
    descent="-52"
    x-height="142"
    cap-height="192"
    bbox="-6 -62 230 209"
    underline-thickness="12"
    underline-position="-57"
    unicode-range="U+0021-FF01"
  />
<missing-glyph horiz-adv-x="256" 
d="M6 47l-6 86v59h23v-59l-6 -86h-11zM23 0h-23v26h23v-26z" />
    <glyph glyph-name=".notdef" horiz-adv-x="256" 
d="M6 47l-6 86v59h23v-59l-6 -86h-11zM23 0h-23v26h23v-26z" />
    <glyph glyph-name="exclam" unicode="!" horiz-adv-x="85" 
d="M37 47l-6 86v59h23v-59l-6 -86h-11zM54 0h-23v26h23v-26z" />
    <glyph glyph-name="quotedbl" unicode="&#x22;" horiz-adv-x="64" 
d="M11 131v58h14v-58h-14zM40 131v58h13v-58h-13z" />
    <glyph glyph-name="numbersign" unicode="#" 
d="M8 0l21 65h-28l5 15h27l10 32h-28l4 15h28l21 65h14l-20 -65h22l20 65h14l-20 -65h29l-5 -15h-28l-10 -32h29l-4 -15h-30l-20 -65h-14l20 65h-22l-20 -65h-15zM48 80h22l10 32h-23z" />
    <glyph glyph-name="dollar" unicode="$" 
d="M74 83v-67q28 -2 28 31q1 27 -28 36zM63 16v72q-49 18 -47 53q2 47 47 51v17h11v-17q44 -3 45 -51h-21q0 23 -11 29q-7 3 -13 3v-65q2 -2 5 -3q48 -18 45 -53q-1 -52 -50 -54v-26h-11v26q-54 2 -49 61h21q-5 -45 28 -43zM63 112v61q-25 -3 -25 -29q-2 -22 25 -32z" />
    <glyph glyph-name="percent" unicode="%" horiz-adv-x="213" 
d="M196 48q0 -48 -37 -48q-33 1 -33 48q0 44 36 45q32 -1 34 -45zM161 14q17 -1 17 29q1 35 -17 35q-19 0 -17 -35q-1 -30 17 -29zM52 188q32 -1 33 -45q1 -52 -36 -47q-35 1 -33 47q0 44 36 45zM51 110q17 0 17 29q1 35 -18 35t-17 -35q-1 -29 18 -29zM154 192l-85 -194
h-13l85 194h13z" />
    <glyph glyph-name="ampersand" unicode="&#x26;" horiz-adv-x="170" 
d="M112 33l-42 62q-29 -20 -27 -44q1 -35 37 -36q17 0 32 18zM77 120q21 16 21 34q-2 20 -18 21q-17 -2 -18 -20q-1 -15 15 -35zM86 106l37 -54q5 18 7 36h19q-2 -34 -14 -53l26 -35h-26l-12 17q-18 -20 -45 -20q-55 3 -57 54q-2 34 40 58q-20 23 -19 43q2 37 37 40
q38 -2 40 -38q-1 -26 -33 -48z" />
    <glyph glyph-name="quotesingle" unicode="'" horiz-adv-x="64" 
d="M25 131v58h14v-58h-14z" />
    <glyph glyph-name="parenleft" unicode="(" horiz-adv-x="85" 
d="M61 192h14q-2 -3 -4 -7q-29 -52 -28 -115q-2 -68 33 -123h-15q-41 64 -40 120q-2 61 40 125z" />
    <glyph glyph-name="parenright" unicode=")" horiz-adv-x="85" 
d="M26 -53h-13l4 10q27 49 27 110q1 68 -33 125h15q40 -66 40 -122q1 -61 -40 -123z" />
    <glyph glyph-name="asterisk" unicode="*" 
d="M29 171l29 -11v32h13v-31l29 10l4 -12l-30 -10l20 -24l-11 -9l-20 26l-18 -24l-11 7l19 23l-28 12z" />
    <glyph glyph-name="plus" unicode="+" 
d="M55 74v55h18v-55h44v-18h-44v-56h-18v56h-44v18h44z" />
    <glyph glyph-name="comma" unicode="," horiz-adv-x="64" 
d="M33 0h-13v26h24q0 -11 -1 -18v-11q-1 -19 -13 -27q-4 -4 -10 -5v11l6 3q7 9 7 21z" />
    <glyph glyph-name="hyphen" unicode="-" 
d="M11 56v18h106v-18h-106z" />
    <glyph glyph-name="period" unicode="." horiz-adv-x="64" 
d="M44 0h-24v26h24v-26z" />
    <glyph glyph-name="slash" unicode="/" horiz-adv-x="71" 
d="M12 -5h-13l60 197h15z" />
    <glyph glyph-name="zero" unicode="0" 
d="M37 98q0 -5 -1 -13q-4 -73 31 -70q30 0 30 76v7v6q3 67 -30 69q-32 1 -31 -70q1 -4 1 -5zM67 -2q-55 0 -52 96q-2 98 52 98q57 1 52 -98q3 -97 -52 -96z" />
    <glyph glyph-name="one" unicode="1" 
d="M60 0v140h-41v16q43 -2 46 36h16v-192h-21z" />
    <glyph glyph-name="two" unicode="2" 
d="M82 79l-35 -32q-13 -11 -14 -28h81v-19h-103q1 27 8 41q3 8 15 20l37 35q21 17 20 43q-1 33 -29 34q-30 0 -28 -46h-21v11q-1 24 12 39q14 15 38 15q48 -2 50 -54q1 -32 -31 -59z" />
    <glyph glyph-name="three" unicode="3" 
d="M50 89v20h6q35 -3 34 32q0 32 -27 32q-29 0 -27 -38h-21q0 55 48 57q45 -3 48 -48q0 -34 -27 -43q31 -8 32 -44q-1 -58 -54 -59q-52 1 -50 58h21q-3 -41 31 -41q29 0 31 35q2 43 -45 39z" />
    <glyph glyph-name="four" unicode="4" 
d="M77 159l-53 -92h53v92zM7 68l72 124h19v-125h17v-19h-17v-48h-21v48h-70v20z" />
    <glyph glyph-name="five" unicode="5" 
d="M13 50h22q-2 -35 28 -35q29 0 31 47q0 45 -32 45q-20 0 -27 -18h-19l12 99h81v-19h-64l-9 -56l1 -1q12 14 30 14q47 -2 49 -61q-2 -66 -52 -67q-53 2 -51 52z" />
    <glyph glyph-name="six" unicode="6" 
d="M98 62q0 40 -31 41q-30 0 -29 -39q-3 -49 31 -49q28 0 29 47zM116 146h-22q0 27 -26 27q-30 0 -33 -71v-4h1q10 23 35 24q46 -2 49 -59q-3 -63 -51 -65q-58 -1 -55 87q-3 107 57 107q42 -2 45 -46z" />
    <glyph glyph-name="seven" unicode="7" 
d="M11 169v19h106v-18q-55 -74 -63 -170h-24q11 93 69 169h-88z" />
    <glyph glyph-name="eight" unicode="8" 
d="M34 56q-1 -42 32 -41q27 1 28 41q-1 36 -30 37q-29 -1 -30 -37zM40 144q-1 -32 25 -32q24 -1 24 31q0 30 -24 30q-26 0 -25 -29zM48 103v1q-31 4 -30 42q2 44 48 46q43 -2 45 -47q-1 -36 -29 -41v-1q32 -7 34 -45q-2 -58 -51 -60q-53 1 -53 57q1 40 36 48z" />
    <glyph glyph-name="nine" unicode="9" 
d="M94 125q-1 47 -31 48q-29 -1 -30 -44q0 -43 30 -43t31 39zM16 42h21q0 -27 26 -27q29 0 32 70q0 2 1 5q-12 -24 -36 -24q-47 1 -49 59q2 62 51 67q57 1 55 -89q3 -106 -57 -105q-43 2 -44 44z" />
    <glyph glyph-name="colon" unicode=":" horiz-adv-x="64" 
d="M44 0h-24v26h24v-26zM44 114h-24v26h24v-26z" />
    <glyph glyph-name="semicolon" unicode=";" horiz-adv-x="64" 
d="M20 0v26h24q0 -11 -1 -18v-11q-1 -19 -13 -27q-4 -4 -10 -5v11l6 3q7 9 7 21h-13zM44 114h-24v26h24v-26z" />
    <glyph glyph-name="less" unicode="&#x3c;" 
d="M31 65l87 -49v-17l-107 58v16l107 60v-19z" />
    <glyph glyph-name="equal" unicode="=" 
d="M117 98v-18h-106v18h106zM117 50v-18h-106v18h106z" />
    <glyph glyph-name="greater" unicode="&#x3e;" 
d="M11 16l87 49l-87 49v19l107 -60v-16l-107 -58v17z" />
    <glyph glyph-name="question" unicode="?" 
d="M73 44h-22q-4 32 20 53q1 2 5 5q3 3 5 6q14 18 14 34q-2 30 -26 32q-33 -1 -31 -42h-23q0 58 51 60q49 -3 52 -48q0 -25 -24 -52l-15 -18q-3 -4 -4 -8q-3 -11 -2 -22zM74 0h-23v26h23v-26z" />
    <glyph glyph-name="at" unicode="@" horiz-adv-x="204" 
d="M110 137q-37 -5 -44 -61q1 -24 20 -25q17 0 29 24q13 27 14 44q-2 16 -19 18zM139 135l4 12h18l-27 -78q-4 -9 -3 -13q0 -7 7 -7q16 1 31 20q13 18 14 42q-6 61 -77 68q-77 -8 -84 -86q7 -77 85 -84q43 1 68 36h16q-29 -45 -84 -47q-91 6 -98 97q8 88 98 97q34 -1 61 -22
q27 -24 28 -60q-1 -26 -16 -47q-21 -28 -45 -28q-18 0 -22 14q-12 -13 -31 -13q-34 2 -36 38q8 72 64 79q21 -1 29 -18z" />
    <glyph glyph-name="A" unicode="A" horiz-adv-x="142" 
d="M3 0l55 192h28l54 -192h-24l-15 55h-61l-14 -55h-23zM96 74l-25 103l-25 -103h50z" />
    <glyph glyph-name="B" unicode="B" horiz-adv-x="142" 
d="M42 19h33q32 -2 32 36q1 40 -46 36h-19v-72zM42 173v-63h19q43 -5 40 33q3 32 -41 30h-18zM71 0h-51v192h55q47 1 49 -48q2 -32 -29 -42q33 -4 34 -45q-1 -57 -58 -57z" />
    <glyph glyph-name="C" unicode="C" horiz-adv-x="142" 
d="M134 134h-21q-2 43 -35 43q-39 0 -37 -78q-4 -84 37 -84q29 -1 33 41v6q1 4 2 7h21q-2 -4 -1 -11q-1 -4 -1 -7q-2 -23 -11 -34q-15 -20 -41 -20q-66 -2 -61 101q-2 98 60 98q53 -3 55 -62z" />
    <glyph glyph-name="D" unicode="D" horiz-adv-x="156" 
d="M78 0h-57v192h53q71 0 66 -96q-1 -96 -62 -96zM42 173v-154h34q46 -3 42 81q1 75 -42 73h-34z" />
    <glyph glyph-name="E" unicode="E" 
d="M115 0h-96v192h96v-19h-75v-64h70v-19h-70v-71h75v-19z" />
    <glyph glyph-name="F" unicode="F" horiz-adv-x="113" 
d="M40 0h-21v192h90v-19h-69v-63h64v-19h-64v-91z" />
    <glyph glyph-name="G" unicode="G" horiz-adv-x="156" 
d="M140 99v-99h-16v28h-1q-9 -30 -44 -31q-65 -1 -61 100q-1 99 63 99q56 -3 57 -60h-21q-1 39 -35 41q-46 1 -42 -80q-4 -83 36 -82q45 -4 43 64h-43v20h64z" />
    <glyph glyph-name="H" unicode="H" horiz-adv-x="156" 
d="M41 0h-21v192h21v-80h74v80h21v-192h-21v93h-74v-93z" />
    <glyph glyph-name="I" unicode="I" horiz-adv-x="71" 
d="M46 0h-21v192h21v-192z" />
    <glyph glyph-name="J" unicode="J" horiz-adv-x="113" 
d="M8 60h21v-11q-2 -36 22 -34q25 -1 24 34v143h21v-145q0 -50 -45 -49q-27 0 -37 16q-9 17 -6 46z" />
    <glyph glyph-name="K" unicode="K" horiz-adv-x="142" 
d="M42 0h-22v192h21v-99h1l69 99h27l-61 -80l63 -112h-26l-52 93l-20 -26v-67z" />
    <glyph glyph-name="L" unicode="L" 
d="M121 0h-100v192h21v-173h79v-19z" />
    <glyph glyph-name="M" unicode="M" horiz-adv-x="199" 
d="M104 42l38 150h38v-192h-22v158v7v18l-6 -26l-40 -157h-25l-41 159q-1 3 -3 10q-2 8 -2 14h-1v-14q1 -8 1 -11v-158h-22v192h38l38 -150q2 -10 4 -28q0 4 2 13q1 7 3 15z" />
    <glyph glyph-name="N" unicode="N" horiz-adv-x="156" 
d="M115 35v157h22v-192h-35l-54 154q-5 11 -7 29h-1v-13q1 -6 1 -17v-153h-21v192h34l55 -157q3 -12 6 -21h1q0 3 -1 10t0 11z" />
    <glyph glyph-name="O" unicode="O" horiz-adv-x="156" 
d="M17 100q-2 96 64 96q64 0 63 -96q1 -105 -64 -103q-65 -2 -63 103zM122 100q0 77 -42 77t-41 -77q-4 -90 41 -85q44 -6 42 85z" />
    <glyph glyph-name="P" unicode="P" horiz-adv-x="142" 
d="M43 173v-72h21q49 -4 47 37q1 37 -46 35h-22zM43 0h-21v192h50q31 0 45 -13q16 -14 16 -41q-1 -38 -27 -51q-15 -7 -50 -6h-13v-81z" />
    <glyph glyph-name="Q" unicode="Q" horiz-adv-x="156" 
d="M129 23l22 -18l-11 -12l-21 16q-14 -11 -39 -12q-65 -2 -63 103q-2 96 63 96t64 -96q-2 -58 -15 -77zM103 22l-19 15l11 14l18 -14q7 19 9 55q-1 49 -10 66q-9 19 -32 19q-45 4 -41 -85q-1 -79 41 -77q13 -1 23 7z" />
    <glyph glyph-name="R" unicode="R" horiz-adv-x="156" 
d="M43 173v-69h34q36 -1 37 35q-1 35 -41 34h-30zM43 84v-84h-21v192h49q68 2 65 -55q-3 -35 -37 -42q32 0 34 -36q1 -21 4 -43v-2q3 -11 8 -10v-4h-25q-3 7 -5 20q-2 15 -2 29q-1 34 -33 35h-37z" />
    <glyph glyph-name="S" unicode="S" horiz-adv-x="142" 
d="M125 142h-22q1 33 -30 35q-35 0 -34 -35q0 -19 18 -26q5 -3 15 -6l15 -5q47 -16 43 -52q-2 -53 -59 -56q-40 0 -53 29q-5 9 -4 35h21q-4 -48 37 -46q35 1 36 33q0 26 -26 35q-3 0 -5 2q-4 1 -12 4q-19 6 -26 11q-23 10 -22 43q2 50 53 53q56 -2 55 -54z" />
    <glyph glyph-name="T" unicode="T" 
d="M4 173v19h120v-19h-49v-173h-21v173h-50z" />
    <glyph glyph-name="U" unicode="U" horiz-adv-x="156" 
d="M21 46v146h21v-138q-2 -40 36 -39q37 -1 37 39v138h21v-146q-1 -48 -58 -49q-56 2 -57 49z" />
    <glyph glyph-name="V" unicode="V" horiz-adv-x="142" 
d="M71 15l45 177h24l-56 -192h-26l-55 192h23z" />
    <glyph glyph-name="W" unicode="W" horiz-adv-x="213" 
d="M100 130l-28 -130h-27l-41 192h24l25 -132q3 -24 6 -45q0 4 1 13q2 19 5 30l28 134h27l25 -132q3 -25 6 -45q3 22 6 43l28 134h24l-45 -192h-27l-25 130q-3 11 -6 40v7q-3 -21 -6 -47z" />
    <glyph glyph-name="X" unicode="X" horiz-adv-x="142" 
d="M4 0l55 99l-53 93h25l40 -75l40 75h25l-52 -93l54 -99h-26l-41 80l-41 -80h-26z" />
    <glyph glyph-name="Y" unicode="Y" horiz-adv-x="142" 
d="M26 192l45 -96l45 96h24l-58 -118v-74h-22v74l-57 118h23z" />
    <glyph glyph-name="Z" unicode="Z" 
d="M121 0h-114v18l91 155h-89v19h111v-18l-91 -155h92v-19z" />
    <glyph glyph-name="bracketleft" unicode="[" horiz-adv-x="85" 
d="M70 -52h-44v244h44v-15h-24v-213h24v-16z" />
    <glyph glyph-name="backslash" unicode="\" horiz-adv-x="64" 
d="M57 0l-63 192h13l65 -192h-15z" />
    <glyph glyph-name="bracketright" unicode="]" horiz-adv-x="85" 
d="M60 -52h-45v16h25v213h-25v15h45v-244z" />
    <glyph glyph-name="asciicircum" unicode="^" horiz-adv-x="85" 
d="M60 160l-17 24l-17 -24h-21l26 36h24l25 -36h-20z" />
    <glyph glyph-name="underscore" unicode="_" 
d="M128 -30h-128v13h128v-13z" />
    <glyph glyph-name="grave" unicode="`" horiz-adv-x="85" 
d="M9 196h28l23 -36h-18z" />
    <glyph glyph-name="a" unicode="a" horiz-adv-x="113" 
d="M75 42v35q-6 -4 -18 -9l-14 -7q-12 -6 -12 -24q-1 -25 20 -24q23 2 24 29zM109 15v-15h-5q-26 -3 -25 19h-1q-11 -19 -31 -21q-39 -1 -37 40q0 25 20 34l25 10q17 7 18 8q4 3 4 13v4q1 23 -23 22q-24 1 -20 -25h-18q-2 42 42 42q39 0 38 -38v-82q-1 -10 4 -11q1 -1 9 0z
" />
    <glyph glyph-name="b" unicode="b" 
d="M38 68q-3 -56 29 -55q27 -3 26 61q0 54 -27 55q-29 0 -29 -58q1 -2 1 -3zM38 17v-17h-19v192h20v-64h1q10 18 30 18q43 -1 44 -66q1 -82 -43 -82q-23 -1 -33 19z" />
    <glyph glyph-name="c" unicode="c" horiz-adv-x="113" 
d="M86 50h20q-3 -51 -43 -52q-52 -1 -50 71q-1 77 49 77q40 -2 43 -48h-19q-2 31 -24 31q-30 0 -28 -64q-1 -52 27 -52q24 -2 25 37z" />
    <glyph glyph-name="d" unicode="d" 
d="M88 56v17q1 56 -27 56q-29 1 -28 -57q-3 -62 28 -59q24 1 27 43zM88 128v64h21v-192h-20v19q-12 -22 -35 -21q-41 0 -42 67v6q0 72 43 75q18 0 33 -18z" />
    <glyph glyph-name="e" unicode="e" horiz-adv-x="113" 
d="M33 86h48q-1 2 -1 4q0 39 -22 39q-23 0 -25 -41v-2zM82 47h19q-1 -47 -43 -49q-47 -1 -46 73q1 73 46 75q42 0 43 -69q0 -5 1 -8h-69v-9q-2 -48 26 -47q23 0 23 34z" />
    <glyph glyph-name="f" unicode="f" horiz-adv-x="71" 
d="M24 0v125h-21v17h21v12q-1 20 5 28q8 13 37 10v-17q-25 4 -22 -18v-15h22v-17h-22v-125h-20z" />
    <glyph glyph-name="g" unicode="g" 
d="M61 129q-28 -1 -27 -58q-1 -60 25 -58q33 -1 31 61q-1 54 -29 55zM90 126v16h20v-125q1 -27 -11 -44q-13 -19 -39 -19q-39 1 -42 34h19q3 -17 23 -17q29 0 29 42v4q-12 -19 -31 -19q-46 -1 -45 74q1 73 45 74q20 0 31 -20h1z" />
    <glyph glyph-name="h" unicode="h" 
d="M39 95v-95h-20v192h20v-65q15 19 35 19q35 -1 36 -36v-110h-21v104q0 25 -21 25q-11 -1 -20 -8q-10 -8 -9 -26z" />
    <glyph glyph-name="i" unicode="i" horiz-adv-x="56" 
d="M39 0h-21v142h21v-142zM39 166h-21v26h21v-26z" />
    <glyph glyph-name="j" unicode="j" horiz-adv-x="56" 
d="M3 -47v19q11 0 14 4q2 5 2 15v4v147h20v-146q2 -46 -36 -43zM39 166h-20v26h20v-26z" />
    <glyph glyph-name="k" unicode="k" horiz-adv-x="113" 
d="M38 0h-20v192h20v-116l49 66h24l-44 -55l45 -87h-23l-36 71l-15 -20v-51z" />
    <glyph glyph-name="l" unicode="l" horiz-adv-x="56" 
d="M39 0h-21v192h21v-192z" />
    <glyph glyph-name="m" unicode="m" horiz-adv-x="199" 
d="M40 95v-95h-21v142h20v-18q13 21 34 22q23 -1 34 -22q15 22 38 22q15 0 26 -10q9 -9 9 -33v-103h-20v104q0 25 -22 25q-11 -1 -19 -8q-10 -8 -9 -26v-95h-20v104q0 25 -22 25q-11 -1 -20 -8t-8 -26z" />
    <glyph glyph-name="n" unicode="n" 
d="M38 142v-15h1q15 19 35 19q35 -1 36 -36v-110h-21v104q0 25 -21 25q-11 -1 -20 -8q-10 -8 -9 -26v-95h-20v142h19z" />
    <glyph glyph-name="o" unicode="o" 
d="M116 76q1 -80 -51 -78q-52 -1 -51 78q0 69 51 70q50 -1 51 -70zM95 70q1 61 -30 59q-32 2 -30 -59q-1 -59 30 -57q30 -2 30 57z" />
    <glyph glyph-name="p" unicode="p" 
d="M93 74q-1 54 -27 55q-29 0 -27 -58q-3 -59 27 -58q28 -2 27 61zM39 15v-61h-21v188h20v-16q9 18 30 20q44 -2 46 -65q0 -83 -45 -83q-20 0 -30 17z" />
    <glyph glyph-name="q" unicode="q" 
d="M36 65q0 -54 27 -52q28 -1 27 59q2 57 -27 57q-30 0 -27 -64zM91 128v14h19v-187h-20v61h-1q-13 -18 -30 -18q-42 -2 -44 71q-1 73 42 77q21 -1 33 -18h1z" />
    <glyph glyph-name="r" unicode="r" horiz-adv-x="85" 
d="M40 142v-23h1q11 28 41 25v-20q-39 5 -41 -38v-86h-20v142h19z" />
    <glyph glyph-name="s" unicode="s" horiz-adv-x="113" 
d="M98 104h-19q0 25 -23 25q-22 0 -22 -21q0 -16 21 -25q4 -1 7 -2q3 -2 6 -3q36 -12 35 -38q-2 -40 -48 -42q-26 1 -35 13q-9 10 -9 27q0 2 1 3h19q-2 -29 24 -28q27 -1 27 24q-1 16 -25 24q-5 2 -10 5q-37 10 -34 40q1 38 41 40q45 -1 44 -42z" />
    <glyph glyph-name="t" unicode="t" horiz-adv-x="71" 
d="M42 181v-39h24v-17h-24v-97q0 -1 -1 -2q-1 -10 11 -9h13v-17h-22q-22 0 -21 23v102h-20v17h20v39h20z" />
    <glyph glyph-name="u" unicode="u" 
d="M89 0v19q-11 -20 -34 -21q-35 0 -34 35v109h20v-110q-1 -20 18 -19q15 0 24 13q6 8 6 25v91h21v-142h-21z" />
    <glyph glyph-name="v" unicode="v" horiz-adv-x="113" 
d="M46 0l-43 142h21l33 -125l32 125h21l-42 -142h-22z" />
    <glyph glyph-name="w" unicode="w" horiz-adv-x="170" 
d="M96 142l24 -125l25 125h21l-35 -142h-21l-24 125h-1l-23 -125h-21l-36 142h21l26 -125l23 125h21z" />
    <glyph glyph-name="x" unicode="x" horiz-adv-x="113" 
d="M46 73l-41 69h21l32 -51l31 51h21l-41 -69l43 -73h-21l-34 57l-34 -57h-21z" />
    <glyph glyph-name="y" unicode="y" horiz-adv-x="113" 
d="M47 -1l-46 143h21l32 -123h1l33 123h21l-42 -136q-2 -5 -5 -11q-5 -14 -8 -23q-12 -19 -33 -19q-8 0 -15 3v18q8 -3 16 -3q14 1 22 21q1 4 3 7z" />
    <glyph glyph-name="z" unicode="z" horiz-adv-x="99" 
d="M94 0h-88v16l66 110h-63v16h84v-16l-66 -109h67v-17z" />
    <glyph glyph-name="braceleft" unicode="{" horiz-adv-x="70" 
d="M45 49v-45q-2 -18 23 -26v-1q-47 -2 -43 36v43q1 14 -8 22q-6 4 -15 6q11 1 17 8q6 5 6 19v48q-1 19 11 26q10 7 32 7v-1q-25 -6 -23 -28v-48q1 -26 -25 -31q27 -5 25 -35z" />
    <glyph glyph-name="bar" unicode="|" horiz-adv-x="64" 
d="M24 -62v254h16v-254h-16z" />
    <glyph glyph-name="braceright" unicode="}" horiz-adv-x="70" 
d="M25 119v44q0 22 -23 28v1q45 3 43 -38v-42q-2 -17 9 -22q6 -5 14 -6v-1q-12 -2 -17 -7q-7 -8 -6 -19v-48q0 -17 -10 -25q-6 -3 -14 -4q-6 -2 -19 -2q23 7 23 26v48q-2 27 25 31v1q-28 4 -25 35z" />
    <glyph glyph-name="asciitilde" unicode="~" 
d="M108 88l9 -12q-13 -28 -30 -28q-6 0 -22 7q-5 3 -6 4q-12 7 -18 7q-11 0 -20 -22q-1 -1 -1 -2l-9 13q13 30 30 30q10 -1 25 -9q1 -1 4 -3q13 -7 18 -6q10 0 20 21z" />
    <glyph glyph-name="uni4E86" unicode="&#x4e86;" horiz-adv-x="250" 
d="M21 180h198l10 -31l-99 -20h12v-125l-29 -34v155l-18 -3l107 48h-181v10z" />
    <glyph glyph-name="uni4EE3" unicode="&#x4ee3;" horiz-adv-x="250" 
d="M85 118l50 2v71h25v-70l68 4v-11l-68 -4q0 -77 48 -109l21 -31q-94 23 -94 139l-50 -3v12zM172 179l39 -14l-18 -29zM50 185l32 -14l-24 -46h11v-117l-24 -38v135l-24 -35z" />
    <glyph glyph-name="uni518D" unicode="&#x518d;" horiz-adv-x="250" 
d="M74 142h41v32h-82v10h187v-10h-81v-32h41l24 11v-102h26v-10h-26v-46l-24 -26v72h-106v-46l-24 -25v71h-29v10h29v102zM115 133h-41v-36h41v36zM180 97v36h-41v-36h41zM115 89h-41v-38h106v38h-41v-17l-24 -16v33z" />
    <glyph glyph-name="uni5728" unicode="&#x5728;" horiz-adv-x="250" 
d="M27 149v11h58v1q4 22 4 29h31q-1 -9 -5 -21q-1 -4 -2 -9h115v-11h-119q-13 -29 -27 -46v-102l-26 -31v104l-34 -25q22 25 34 45v23h14q0 2 2 4q7 17 11 28h-56zM226 -14v-11h-139v11h139zM144 67h-48v11h48v60h27v-60h47v-11h-47v-48l-27 -27v75z" />
    <glyph glyph-name="uni5927" unicode="&#x5927;" horiz-adv-x="250" 
d="M104 125h-77v11h77v55h24v-55h73v-11h-73v-31l101 -124l-51 13l-50 110q-15 -68 -107 -121q84 54 83 135v18z" />
    <glyph glyph-name="uni5BB6" unicode="&#x5bb6;" horiz-adv-x="250" 
d="M191 105l-1 -25l-36 -5l73 -73l-37 4l-38 69zM54 122v9h141v-9h-141zM123 108l-97 -56l76 70zM143 104v-101l-24 -33v134h24zM52 155h79l-23 35l40 -14l-16 -21h70l27 10v-18l-27 -28v24h-150l-27 -24v46zM95 83l-74 -74l94 58zM97 45l17 -17l-73 -35z" />
    <glyph glyph-name="uni5E7F" unicode="&#x5e7f;" horiz-adv-x="250" 
d="M68 157h66l-17 32l-1 1l38 -18l-15 -15h90v-10h-161v-109q0 -24 -46 -68q18 22 19 45v153z" />
    <glyph glyph-name="uni6237" unicode="&#x6237;" horiz-adv-x="250" 
d="M76 155h58l-20 35l40 -17l-19 -18h57l26 11v-67l-26 -30v15h-116v-43q-1 -37 -55 -71q28 25 29 60v136zM76 144v-50h116v50h-116z" />
    <glyph glyph-name="uni641E" unicode="&#x641e;" horiz-adv-x="250" 
d="M114 157v8h55l-16 25l1 1l30 -12l-14 -14h58v-8h-114zM212 112l-19 -18v8h-42l-19 -8v54l19 -8h42l19 8v-36zM151 131v-20h42v20h-42zM140 -8l-20 -20v117l20 -6h66l20 6v-94l-20 -24v103h-66v-82zM166 11l-18 -12v62l18 -7h14l18 7v-40l-18 -22v12h-14zM166 45v-25h14
v25h-14zM30 139h32v45h21v-45h27v-10h-27v-46l26 12l-26 -26v-66l-21 -33v90l-35 -24l-6 24l41 17v52h-32v10z" />
    <glyph glyph-name="uni65B0" unicode="&#x65b0;" horiz-adv-x="250" 
d="M120 146l-32 -28h44v-10h-39v-25h35v-11h-35v-66l-20 -30v96h-39v11h39v25h-44v10h39l-14 37h-18v11h48l-8 25l24 -12l-15 -13h45v-11h-76l29 -22l-15 -15h18l15 36zM139 179l21 -16l46 21l23 -13v-1l-69 -7v-38h67v-10h-23v-117l-21 -28v145h-23v-77q-5 -44 -57 -66
q35 25 36 66v141zM106 51l26 -31l-15 -22zM38 54l22 -11l-32 -43z" />
    <glyph glyph-name="uni65F6" unicode="&#x65f6;" horiz-adv-x="250" 
d="M120 139h57v52h24v-52h28v-10h-28v-125l-24 -35v160h-57v10zM90 -11v18h-33l-24 -16v190l24 -11h33l23 12v-157zM57 18h33v141h-33v-60h23v-11h-23v-70zM132 108h1l32 -47l-21 -21z" />
    <glyph glyph-name="uni6765" unicode="&#x6765;" horiz-adv-x="250" 
d="M112 94v59h-80v9h80v29h23v-29h77v-9h-77v-59h11l32 46l15 -19l-46 -27h69v-9h-78l91 -94l-39 9l-53 85h-2v-76l-23 -39v98q-19 -38 -91 -85q56 44 75 102h-73v9h89zM71 100l-14 44l34 -29z" />
    <glyph glyph-name="uni7528" unicode="&#x7528;" horiz-adv-x="250" 
d="M22 -27q26 28 26 69v149l25 -11h116l25 11v-182l-25 -39v90h-50v-51l-24 -31v82h-42q0 -46 -51 -87zM115 126v44h-42v-44h42zM139 126h50v44h-50v-44zM115 115h-42v-44h42v44zM139 115v-44h50v44h-50z" />
    <glyph glyph-name="uni795D" unicode="&#x795d;" horiz-adv-x="250" 
d="M52 190l1 1q27 -13 34 -19q-4 -11 -12 -16q-13 14 -23 34zM176 101h-43l-22 -9v96l22 -11h43l22 11v-68l-22 -28v9zM176 168h-43v-58h43v58zM71 134h-45v9h47v7h25q-3 -29 -18 -54q15 -9 31 -18q-1 -4 -7 -22h-2q-7 6 -14 21q-6 9 -8 13v-120h-22v102q-27 -30 -36 -23
q43 39 49 85zM124 83h23v-7q5 -53 -60 -106q43 39 37 113zM156 -14v97h22v-85q1 -6 13 -5l38 -19h-58q-14 1 -15 12z" />
    <glyph glyph-name="uni9519" unicode="&#x9519;" horiz-adv-x="250" 
d="M129 157v34h24v-34h26v34h24v-34h20v-9h-20v-42h27v-9h-131v9h30v42h-21v9h21zM179 106v42h-26v-42h26zM120 -30v109l23 -7h44l24 7v-82l-24 -27v14h-44zM178 34v-9h-35v-32h44v70h-44v-29h35zM26 100l12 91l26 -8l-8 -19h44v-9h-47l-16 -32h59v-9h-28v-34h30v-9h-30v-60
l39 11l-73 -51l-13 27l28 7v66h-28v9h28v34h-16z" />
    <glyph glyph-name="uniFF01" unicode="&#xff01;" horiz-adv-x="256" 
d="M74 26h-19q-2 87 -5 176h29q-2 -44 -3 -88q-1 -59 -2 -88zM77 5v-29h-24v29h24z" />
  </font>
</defs>
</svg>
